# xmcd CD database file
#
# Track frame offsets:
#	150
#	15847
#	30305
#
# Disc length: 627 seconds
#
# Revision: 2
# Processed by: cddbd v1.5PL3 Copyright (c) Steve Scherf et al.
# Submitted via: CDex 1.51
#
DISCID=0e027103
DTITLE=ブリーフ＆トランクス - 権力ハニー〜夏バージョン〜
DYEAR=2000
DGENRE=JPop
TTITLE0=権力ハニー〜夏バージョン〜
TTITLE1=痛ーっ！
TTITLE2=突然の来客
EXTD=YEAR: 2000
EXTT0=
EXTT1=
EXTT2=
PLAYORDER=
